<svg width="500" height="500" viewBox="0 0 500 500" fill="none" xmlns="http://www.w3.org/2000/svg">
<rect width="500" height="500" rx="50" fill="#323437"/>
<path d="M461.922 220.814C461.123 213.665 453.626 209.29 451.793 202.652C441.452 165.169 408.922 144.235 394.432 128.309C390.638 124.137 389.337 123.163 385.986 119.287C382.78 115.578 381.333 114.609 368.456 113.579C355.578 112.551 346.078 112.059 342.399 111.765C338.72 111.471 335.568 112.336 333.583 117.025C331.498 121.953 327.526 133.595 326.833 136.369C325.993 139.712 327.98 143.414 333.051 142.103C333.121 145.823 337.434 147.036 341.052 145.167C342.016 148.011 346.386 148.915 350.613 145.907C350.613 145.907 351.225 148.444 354.281 148.621C357.337 148.8 362.369 146.151 366.015 144.769C366.737 144.496 367.256 144.096 367.646 143.686C371.211 145.485 375.962 144.122 375.962 144.122C382.029 147.042 391.285 158.495 393.913 175.335C396.539 192.175 401.382 203.491 408.601 212.702C401.291 216.139 384.607 203.785 364.869 219.843C364.869 219.843 347.513 214.007 326.153 219.324C313.313 222.517 304.882 229.762 301.435 233.225H301.433C298.66 231.687 289.716 229.383 285.551 228.66C281.27 227.916 278.225 224.096 278.51 219.769C279.083 211.08 280.636 200.537 280.962 198.375C282.406 195.762 283.426 192.837 283.687 189.355C284.906 189.997 286.337 190.361 287.742 189.788C290.88 188.506 289.927 184.298 291.99 179.906C295.23 173.013 296.988 165.174 291.853 163.712C293.128 151.552 292.207 130.946 282.651 121.41C273.093 111.874 259.069 108 249.498 108C239.926 108 225.901 111.874 216.344 121.41C206.788 130.946 205.867 151.552 207.142 163.712C202.006 165.176 203.765 173.013 207.005 179.906C209.067 184.298 208.115 188.506 211.252 189.788C212.657 190.361 214.086 189.997 215.308 189.355C215.569 192.837 216.586 195.762 218.032 198.377C218.36 200.542 219.913 211.08 220.486 219.767C220.771 224.094 217.726 227.913 213.445 228.658C209.28 229.381 200.336 231.685 197.564 233.223C194.118 229.76 185.685 222.515 172.845 219.322C151.484 214.005 134.129 219.841 134.129 219.841C114.391 203.782 97.7049 216.138 90.3972 212.7C97.616 203.49 102.459 192.173 105.085 175.333C107.713 158.494 116.969 147.038 123.037 144.12C123.037 144.12 127.787 145.483 131.353 143.684C131.742 144.095 132.261 144.494 132.983 144.768C136.629 146.149 141.661 148.801 144.717 148.619C147.773 148.442 148.385 145.905 148.385 145.905C152.612 148.913 156.983 148.011 157.948 145.165C161.566 147.035 165.879 145.822 165.949 142.101C171.02 143.412 173.008 139.71 172.169 136.367C171.474 133.593 167.504 121.951 165.417 117.024C163.432 112.332 160.28 111.469 156.601 111.763C152.92 112.057 143.422 112.547 130.544 113.577C117.667 114.607 116.222 115.576 113.014 119.285C109.663 123.159 108.362 124.135 104.568 128.307C90.0765 144.235 57.5484 165.169 47.2067 202.65C45.3737 209.288 37.8769 213.663 37.0781 220.812C36.2793 227.959 41.515 234.656 57.1128 241.535C81.7513 273.334 98.8151 275.969 122.151 277.985C130.089 278.671 136.158 280.29 140.636 291.352C148.316 310.32 152.887 324.889 166.676 340.941C179.486 355.852 186.052 391 186.052 391H249.498H312.949C312.949 391 319.514 355.852 332.324 340.941C346.115 324.889 350.686 310.32 358.364 291.352C362.842 280.29 368.911 278.671 376.849 277.985C400.185 275.969 417.249 273.334 441.887 241.535C457.487 234.66 462.721 227.963 461.922 220.814Z" fill="#E2B714"/>
</svg>
